<svg width="41" height="54" viewBox="0 0 41 54" fill="none" xmlns="http://www.w3.org/2000/svg">
<path d="M10.5671 38.0808H11.6812C12.3931 38.0808 12.916 38.217 13.25 38.4895C13.5884 38.762 13.7576 39.1772 13.7576 39.7354C13.7576 40.1528 13.6675 40.489 13.4873 40.7439C13.3071 40.9988 13.0435 41.1855 12.6963 41.3042C12.3491 41.4185 11.9272 41.4756 11.4307 41.4756H10.5671V38.0808Z" fill="url(#paint0_linear_64_22915)"/>
<path d="M23.0916 39.5903C23.342 40.1001 23.4673 40.7505 23.4673 41.5415C23.4673 42.7148 23.1794 43.5981 22.6038 44.1914C22.0281 44.7847 21.158 45.0813 19.9934 45.0813H18.8728V38.0808H20.2241C20.9272 38.0808 21.5183 38.2061 21.9973 38.4565C22.4807 38.7026 22.8455 39.0806 23.0916 39.5903Z" fill="url(#paint1_linear_64_22915)"/>
<path fill-rule="evenodd" clip-rule="evenodd" d="M-0.25 3.375C-0.25 1.51104 1.26104 0 3.125 0H23.375V10.9688C23.375 13.2987 25.2638 15.1875 27.5938 15.1875H40.25V50.625C40.25 52.489 38.739 54 36.875 54H3.125C1.26104 54 -0.25 52.489 -0.25 50.625V3.375ZM14.509 37.5337C13.9377 37.0239 13.0303 36.769 11.7866 36.769H8.98511V46.4062H10.5671V42.7939H11.5955C12.2986 42.7939 12.8896 42.7105 13.3687 42.5435C13.8521 42.3765 14.241 42.1501 14.5354 41.8645C14.8298 41.5745 15.0408 41.2427 15.1682 40.8691C15.3 40.4912 15.366 40.0935 15.366 39.676C15.366 38.7576 15.0803 38.0435 14.509 37.5337ZM24.5088 44.2178C24.9131 43.4883 25.1152 42.5808 25.1152 41.4954C25.1152 40.4626 24.9175 39.5969 24.522 38.8982C24.1265 38.1951 23.5662 37.6655 22.8411 37.3096C22.116 36.9492 21.2546 36.769 20.2571 36.769H17.2908V46.4062H19.967C21.0525 46.4062 21.9797 46.2239 22.7488 45.8591C23.5178 45.49 24.1045 44.9429 24.5088 44.2178ZM27.1917 46.4062H28.7605V42.4314H32.386V41.1064H28.7605V38.1006H32.6365V36.769H27.1917V46.4062Z" fill="url(#paint2_linear_64_22915)"/>
<path d="M25.0625 10.9688V0.253447C25.4108 0.39661 25.7355 0.598196 26.0216 0.852494L39.1172 12.4931C39.44 12.78 39.7009 13.1225 39.8906 13.5H27.5938C26.1958 13.5 25.0625 12.3667 25.0625 10.9688Z" fill="url(#paint3_linear_64_22915)"/>
<defs>
<linearGradient id="paint0_linear_64_22915" x1="20" y1="0" x2="20" y2="54" gradientUnits="userSpaceOnUse">
<stop stop-color="#989898"/>
<stop offset="0.255208" stop-color="#D9D9D9"/>
<stop offset="0.65625" stop-color="#EEEEEE"/>
<stop offset="1" stop-color="#BCBCBC"/>
</linearGradient>
<linearGradient id="paint1_linear_64_22915" x1="20" y1="0" x2="20" y2="54" gradientUnits="userSpaceOnUse">
<stop stop-color="#989898"/>
<stop offset="0.255208" stop-color="#D9D9D9"/>
<stop offset="0.65625" stop-color="#EEEEEE"/>
<stop offset="1" stop-color="#BCBCBC"/>
</linearGradient>
<linearGradient id="paint2_linear_64_22915" x1="20" y1="0" x2="20" y2="54" gradientUnits="userSpaceOnUse">
<stop stop-color="#989898"/>
<stop offset="0.255208" stop-color="#D9D9D9"/>
<stop offset="0.65625" stop-color="#EEEEEE"/>
<stop offset="1" stop-color="#BCBCBC"/>
</linearGradient>
<linearGradient id="paint3_linear_64_22915" x1="20" y1="0" x2="20" y2="54" gradientUnits="userSpaceOnUse">
<stop stop-color="#989898"/>
<stop offset="0.255208" stop-color="#D9D9D9"/>
<stop offset="0.65625" stop-color="#EEEEEE"/>
<stop offset="1" stop-color="#BCBCBC"/>
</linearGradient>
</defs>
</svg>
