<svg width="17" height="16" viewBox="0 0 17 16" fill="none" xmlns="http://www.w3.org/2000/svg">
<path d="M16.0039 10.1753C16.0039 9.76106 15.6682 9.42528 15.2539 9.42528C14.8397 9.42528 14.5039 9.76106 14.5039 10.1753H16.0039ZM1.78223 10.1753C1.78223 9.76106 1.44644 9.42528 1.03223 9.42528C0.618013 9.42528 0.282227 9.76106 0.282227 10.1753H1.78223ZM13.0528 7.36085C13.3457 7.06795 13.3457 6.59308 13.0528 6.30019C12.7599 6.00729 12.2851 6.00729 11.9922 6.30019L13.0528 7.36085ZM8.16975 11.1833L7.63942 11.7136C7.93231 12.0065 8.40719 12.0065 8.70008 11.7136L8.16975 11.1833ZM4.34732 6.30019C4.05443 6.00729 3.57955 6.00729 3.28666 6.30019C2.99377 6.59308 2.99377 7.06795 3.28666 7.36085L4.34732 6.30019ZM8.91975 1.04004C8.91975 0.625825 8.58396 0.290039 8.16975 0.290039C7.75554 0.290039 7.41975 0.625825 7.41975 1.04004H8.91975ZM7.41975 11.1703C7.41975 11.5845 7.75554 11.9203 8.16975 11.9203C8.58396 11.9203 8.91975 11.5845 8.91975 11.1703H7.41975ZM14.5039 10.1753V12.4968H16.0039V10.1753H14.5039ZM14.5039 12.4968C14.5039 13.3451 13.8165 14.0325 12.9682 14.0325V15.5325C14.6449 15.5325 16.0039 14.1735 16.0039 12.4968H14.5039ZM12.9682 14.0325H3.31794V15.5325H12.9682V14.0325ZM3.31794 14.0325C2.46968 14.0325 1.78223 13.3451 1.78223 12.4968H0.282227C0.282227 14.1735 1.64125 15.5325 3.31794 15.5325V14.0325ZM1.78223 12.4968V10.1753H0.282227V12.4968H1.78223ZM11.9922 6.30019L7.63942 10.6529L8.70008 11.7136L13.0528 7.36085L11.9922 6.30019ZM8.70008 10.6529L4.34732 6.30019L3.28666 7.36085L7.63942 11.7136L8.70008 10.6529ZM7.41975 1.04004V11.1703H8.91975V1.04004H7.41975Z" fill="url(#paint0_linear_309_3191)"/>
<defs>
<linearGradient id="paint0_linear_309_3191" x1="8.14308" y1="1.04004" x2="8.14308" y2="14.7825" gradientUnits="userSpaceOnUse">
<stop stop-color="#8F7F6F"/>
<stop offset="1" stop-color="#A98855"/>
</linearGradient>
</defs>
</svg>
