<svg width="16" height="8" viewBox="0 0 16 8" fill="none" xmlns="http://www.w3.org/2000/svg">
<path d="M8.01255 0.00311422C8.27911 0.002635 8.53745 0.0880909 8.7427 0.244648L15.5879 5.49539C15.8208 5.67364 15.9674 5.92978 15.9952 6.20747C16.023 6.48516 15.9298 6.76164 15.7362 6.9761C15.5425 7.19056 15.2643 7.32542 14.9626 7.35103C14.6609 7.37663 14.3605 7.29087 14.1276 7.11262L8.01255 2.40795L1.89754 6.9446C1.78084 7.03183 1.64657 7.09697 1.50243 7.13628C1.35829 7.17559 1.20714 7.18829 1.05766 7.17365C0.90817 7.15901 0.763301 7.11732 0.631375 7.05098C0.49945 6.98464 0.383069 6.89495 0.288922 6.78707C0.184443 6.6791 0.105314 6.55242 0.0564938 6.41498C0.00767326 6.27755 -0.0097847 6.13231 0.00520897 5.98837C0.0202036 5.84444 0.0673275 5.7049 0.143632 5.57851C0.219936 5.45212 0.323777 5.34159 0.448645 5.25386L7.29381 0.18164C7.50496 0.0498295 7.75802 -0.0130277 8.01255 0.00311422Z" fill="url(#paint0_linear_91_9385)"/>
<defs>
<linearGradient id="paint0_linear_91_9385" x1="8" y1="7.35547" x2="8" y2="0.000629902" gradientUnits="userSpaceOnUse">
<stop stop-color="#A56935"/>
<stop offset="1" stop-color="#6F5539"/>
</linearGradient>
</defs>
</svg>
