<svg width="5" height="11" viewBox="0 0 5 11" fill="none" xmlns="http://www.w3.org/2000/svg">
<path d="M4.99831 5.50863C4.99864 5.69189 4.94054 5.86949 4.83411 6.01061L1.26453 10.7167C1.14335 10.8768 0.969215 10.9776 0.780437 10.9967C0.591658 11.0158 0.403697 10.9518 0.257904 10.8186C0.11211 10.6855 0.020426 10.4942 0.00302095 10.2868C-0.0143841 10.0794 0.0439153 9.87287 0.165095 9.7127L3.36344 5.50863L0.279322 1.30456C0.22002 1.22433 0.175734 1.13201 0.149011 1.03292C0.122288 0.933827 0.113654 0.829909 0.123605 0.727139C0.133557 0.624367 0.161897 0.524769 0.206998 0.434071C0.252099 0.343372 0.313071 0.26336 0.386409 0.198634C0.459815 0.126804 0.545932 0.0724039 0.639365 0.0388393C0.732798 0.00527573 0.831533 -0.00672722 0.929385 0.00358105C1.02724 0.0138903 1.1221 0.0462875 1.20802 0.0987473C1.29395 0.151206 1.36908 0.222596 1.42873 0.308443L4.87695 5.01449C4.96655 5.15966 5.00928 5.33364 4.99831 5.50863Z" fill="url(#paint0_linear_91_8673)"/>
<defs>
<linearGradient id="paint0_linear_91_8673" x1="0" y1="5.5" x2="5" y2="5.5" gradientUnits="userSpaceOnUse">
<stop stop-color="#A56935"/>
<stop offset="1" stop-color="#6F5539"/>
</linearGradient>
</defs>
</svg>
