<svg width="243" height="132" viewBox="0 0 243 132" fill="none" xmlns="http://www.w3.org/2000/svg">
<path d="M116.517 66.4657C116.517 45.3919 111.918 26.374 102.719 9.41221C93.5205 -7.54963 82.7886 -21.9415 70.5237 -33.7634C57.7476 -45.5852 46.2492 -54.5802 36.0284 -60.7481C25.8076 -66.916 19.6751 -70 17.6309 -70C9.96529 -70 4.08832 -64.6031 0 -53.8092C17.8864 -43.0153 31.429 -31.7074 40.6277 -19.8855C49.8265 -8.57759 55.959 1.44529 59.0252 10.1832C61.5804 18.9211 62.858 24.8321 62.858 27.916C62.858 34.598 60.5583 40.7659 55.959 46.4199C50.8486 52.0738 45.7382 57.9847 40.6277 64.1527C36.5394 68.7787 33.2176 73.4046 30.6624 78.0305C27.5962 82.1425 26.0631 87.0255 26.0631 92.6794C26.0631 103.473 32.4511 112.725 45.2271 120.435C57.4921 128.145 70.7792 132 85.0883 132C88.1546 132 91.2208 131.743 94.287 131.229C96.8423 130.201 99.653 129.43 102.719 128.916C106.808 122.748 110.129 113.753 112.685 101.931C115.24 89.5954 116.517 77.7735 116.517 66.4657ZM243 66.4657C243 45.3919 238.401 26.374 229.202 9.41221C220.003 -7.54963 209.271 -21.9415 197.006 -33.7634C184.23 -45.5852 172.732 -54.5802 162.511 -60.7481C152.29 -66.916 146.158 -70 144.114 -70C136.448 -70 130.571 -64.6031 126.483 -53.8092C144.369 -43.0153 157.912 -31.7074 167.11 -19.8855C176.309 -8.57759 182.442 1.44529 185.508 10.1832C188.063 18.9211 189.341 24.8321 189.341 27.916C189.341 34.598 187.041 40.7659 182.442 46.4199C177.331 52.0738 172.221 57.9847 167.11 64.1527C163.022 68.7787 159.7 73.4046 157.145 78.0305C154.079 82.1425 152.546 87.0255 152.546 92.6794C152.546 103.473 158.934 112.725 171.71 120.435C183.975 128.145 197.262 132 211.571 132C214.637 132 217.703 131.743 220.77 131.229C223.325 130.201 226.136 129.43 229.202 128.916C233.29 122.748 236.612 113.753 239.167 101.931C241.722 89.5954 243 77.7735 243 66.4657Z" fill="white" fill-opacity="0.1"/>
</svg>
