<svg width="26" height="30" viewBox="0 0 26 30" fill="none" xmlns="http://www.w3.org/2000/svg">
<path d="M12.7487 12.1667C14.3793 12.1667 15.582 10.9653 15.582 9.33333C15.582 7.70133 14.3793 6.5 12.7487 6.5C11.1195 6.5 9.91536 7.70133 9.91536 9.33333C9.91536 10.9653 11.1195 12.1667 12.7487 12.1667ZM12.7487 13.5833C9.61928 13.5833 7.08203 15.867 7.08203 18.6833V19.2302H18.4154V18.6833C18.4154 15.867 15.8781 13.5833 12.7487 13.5833Z" fill="black" fill-opacity="0.6"/>
<path d="M22.6667 0.832031H2.83333C1.27075 0.832031 0 2.10278 0 3.66536V22.082C0 23.6446 1.27075 24.9154 2.83333 24.9154H8.5L12.75 29.1654L17 24.9154H22.6667C24.2292 24.9154 25.5 23.6446 25.5 22.082V3.66536C25.5 2.10278 24.2292 0.832031 22.6667 0.832031ZM15.5833 22.082L12.75 24.9154L9.91667 22.082H2.83333V3.66536H22.6667L22.6695 22.082H15.5833Z" fill="black" fill-opacity="0.6"/>
</svg>
