<svg width="33" height="24" viewBox="0 0 33 24" fill="none" xmlns="http://www.w3.org/2000/svg">
<path d="M30.5393 10.3331C31.2814 11.3037 31.2814 12.6139 30.5393 13.5829C28.2022 16.6339 22.5948 22.916 16.0482 22.916C9.50154 22.916 3.89417 16.6339 1.55699 13.5829C1.19597 13.1182 1 12.5465 1 11.958C1 11.3695 1.19597 10.7978 1.55699 10.3331C3.89417 7.28207 9.50154 1 16.0482 1C22.5948 1 28.2022 7.28207 30.5393 10.3331V10.3331Z" stroke="black" stroke-opacity="0.6" stroke-width="2" stroke-linecap="round" stroke-linejoin="round"/>
<path d="M16.0479 16.6543C18.6415 16.6543 20.7441 14.5517 20.7441 11.958C20.7441 9.36432 18.6415 7.26172 16.0479 7.26172C13.4542 7.26172 11.3516 9.36432 11.3516 11.958C11.3516 14.5517 13.4542 16.6543 16.0479 16.6543Z" stroke="black" stroke-opacity="0.6" stroke-width="2" stroke-linecap="round" stroke-linejoin="round"/>
</svg>
