<svg width="25" height="25" viewBox="0 0 25 25" fill="none" xmlns="http://www.w3.org/2000/svg">
<path fill-rule="evenodd" clip-rule="evenodd" d="M13.7125 5.456C13.0146 6.62562 12.779 7.99768 12.779 8.64891C12.779 9.07798 12.5761 9.4791 12.2375 9.71964C11.8989 9.96019 11.4687 10.0088 11.089 9.84948C10.8407 9.74526 10.5641 9.63931 10.265 9.52474C9.49002 9.22794 8.56419 8.87335 7.58937 8.34144C6.59935 7.80125 5.52055 7.0676 4.29861 5.97825C4.31377 6.46454 4.41615 6.90991 4.58817 7.32266C4.98974 8.2862 5.84125 9.23885 7.25127 10.1261C7.63704 10.3688 7.86612 10.8128 7.84892 11.2845C7.83171 11.7561 7.57096 12.1805 7.16863 12.3915L7.16728 12.3923L7.16581 12.393L7.16252 12.3947L7.15455 12.3988L7.13304 12.4097C7.11626 12.4181 7.09458 12.4287 7.06816 12.4412C7.01535 12.4663 6.94348 12.4989 6.85377 12.5366C6.67453 12.6118 6.4229 12.7074 6.10887 12.8016C5.77862 12.9006 5.3765 12.9988 4.91484 13.0696C5.17827 14.0512 5.76539 14.6639 6.39805 15.1267C6.77008 15.3988 7.13001 15.5991 7.49174 15.8005C7.58172 15.8505 7.67181 15.9007 7.76222 15.952C7.95978 16.0641 8.21949 16.2157 8.43428 16.396C8.60003 16.5351 9.0821 16.9671 9.0821 17.7002C9.0821 18.169 8.87949 18.5343 8.75123 18.7296C8.60119 18.958 8.41181 19.1641 8.21353 19.3443C7.81352 19.7079 7.27653 20.0573 6.63988 20.3435C5.90683 20.673 5.0119 20.9322 3.98889 21.0255C4.07269 21.0727 4.16176 21.1177 4.25625 21.1607C5.15319 21.5685 6.46492 21.7354 8.04513 21.5847C11.1781 21.2859 14.8949 19.7857 17.4495 17.4338C19.4078 15.0604 20.2372 12.712 20.5824 10.9716C20.757 10.0911 20.808 9.36445 20.8163 8.86839C20.8205 8.6206 20.8141 8.43123 20.8074 8.31009C20.804 8.24955 20.8006 8.20617 20.7984 8.18117L20.7961 8.15767C20.7599 7.84174 20.8358 7.52212 21.0097 7.26127L20.7965 8.16054L20.7967 8.16277L21.0097 7.26127L23.2765 8.3577C23.2577 8.38777 23.2935 8.33078 23.2765 8.3577C23.2765 8.3577 23.2842 8.69885 23.2805 8.91432C23.2698 9.54969 23.2054 10.4393 22.9953 11.4985C22.5741 13.622 21.5682 16.4201 19.2536 19.1979C19.2195 19.2388 19.183 19.2774 19.1443 19.3135C16.1519 22.1029 11.8899 23.8147 8.26824 24.1602C6.45925 24.3327 4.69006 24.1764 3.27635 23.5336C1.8125 22.868 0.683435 21.6423 0.463995 19.8002C0.415732 19.3951 0.552664 18.9898 0.83336 18.707C1.11406 18.4243 1.50554 18.2972 1.88935 18.3644C3.4925 18.6447 4.79509 18.3594 5.66935 17.9664C5.75651 17.9272 5.91549 17.8473 5.91549 17.8473C5.91549 17.8473 5.3062 17.4805 4.98858 17.2481C3.68824 16.2969 2.30452 14.6892 2.30452 11.8815C2.30452 11.1674 2.85624 10.5885 3.53681 10.5885C3.62641 10.5885 3.71429 10.5867 3.80035 10.5833C3.17256 9.9167 2.67128 9.17753 2.33008 8.35885C1.63835 6.6991 1.6745 4.88042 2.39266 2.99649C2.5465 2.59293 2.88328 2.29746 3.28904 2.21007C3.69481 2.12268 4.11527 2.25505 4.40817 2.56239C6.17934 4.4209 7.56832 5.41512 8.72641 6.04702C9.39171 6.41003 9.96225 6.64925 10.5329 6.87134C10.7307 5.99015 11.0763 5.00074 11.6237 4.08353C12.6347 2.38936 14.3791 0.890625 17.092 0.890625C18.7748 0.890625 19.8576 1.76082 20.5395 2.35722C20.6216 2.42909 20.6929 2.49195 20.7555 2.54718C20.9131 2.68624 21.0159 2.77689 21.0997 2.84101C21.6599 2.56239 22.1657 2.36718 22.6155 2.27724C23.0936 2.18164 23.7826 2.15232 24.35 2.62896C24.947 3.13049 25.0161 3.85188 24.9956 4.27916C24.9741 4.72631 24.8472 5.17411 24.7138 5.54722C24.4413 6.30939 24.0078 7.11953 23.6697 7.7037C23.5217 7.95957 23.3849 8.18399 23.2765 8.3577C23.2981 8.63998 23.2742 8.33105 23.2765 8.3577L21.0097 7.26127L21.0111 7.25915L21.0182 7.24844L21.0489 7.20154C21.0763 7.15939 21.1169 7.09631 21.1676 7.01603C21.2691 6.85507 21.4094 6.62706 21.5631 6.3615C21.7815 5.98412 22.0094 5.56047 22.1921 5.15974C22.1179 5.19617 22.0394 5.23607 21.9562 5.2797C21.9395 5.28847 21.9226 5.29683 21.9056 5.30479C21.1516 5.65651 20.4723 5.45034 19.9954 5.16696C19.6661 4.97131 19.33 4.67162 19.0873 4.45528C19.0418 4.41474 18.9997 4.37712 18.9614 4.34366C18.3844 3.83896 17.8737 3.47672 17.092 3.47672C15.4016 3.47672 14.3734 4.34857 13.7125 5.456Z" fill="white"/>
</svg>
