<svg width="26" height="30" viewBox="0 0 26 30" fill="none" xmlns="http://www.w3.org/2000/svg">
<path d="M12.9987 12.1667C14.6293 12.1667 15.832 10.9653 15.832 9.33333C15.832 7.70133 14.6293 6.5 12.9987 6.5C11.3695 6.5 10.1654 7.70133 10.1654 9.33333C10.1654 10.9653 11.3695 12.1667 12.9987 12.1667ZM12.9987 13.5833C9.86928 13.5833 7.33203 15.867 7.33203 18.6833V19.2302H18.6654V18.6833C18.6654 15.867 16.1281 13.5833 12.9987 13.5833Z" fill="black" fill-opacity="0.6"/>
<path d="M22.9167 0.832031H3.08333C1.52075 0.832031 0.25 2.10278 0.25 3.66536V22.082C0.25 23.6446 1.52075 24.9154 3.08333 24.9154H8.75L13 29.1654L17.25 24.9154H22.9167C24.4792 24.9154 25.75 23.6446 25.75 22.082V3.66536C25.75 2.10278 24.4792 0.832031 22.9167 0.832031ZM15.8333 22.082L13 24.9154L10.1667 22.082H3.08333V3.66536H22.9167L22.9195 22.082H15.8333Z" fill="black" fill-opacity="0.6"/>
</svg>
