<svg width="26" height="25" viewBox="0 0 26 25" fill="none" xmlns="http://www.w3.org/2000/svg">
<path fill-rule="evenodd" clip-rule="evenodd" d="M7.8 5H5.2V3.75H2.6V7.5H23.4V3.75H20.8V5H18.2V3.75H7.8V5ZM23.4 10H2.6V22.5H23.4V10ZM18.2 1.25H7.8V0H5.2V1.25H2.6C1.16406 1.25 0 2.36929 0 3.75V22.5C0 23.8808 1.16406 25 2.6 25H23.4C24.836 25 26 23.8808 26 22.5V3.75C26 2.36929 24.836 1.25 23.4 1.25H20.8V0H18.2V1.25ZM6.5 15V12.5H9.1V15H6.5ZM11.7 15H14.3V12.5H11.7V15ZM16.9 15V12.5H19.5V15H16.9ZM6.5 17.5V20H9.1V17.5H6.5ZM14.3 20H11.7V17.5H14.3V20Z" fill="black" fill-opacity="0.6"/>
</svg>
