<svg width="21" height="21" viewBox="0 0 21 21" fill="none" xmlns="http://www.w3.org/2000/svg">
<path fill-rule="evenodd" clip-rule="evenodd" d="M0 6.3C0 2.82061 2.82061 0 6.3 0H14.7C18.1794 0 21 2.82061 21 6.3V14.7C21 18.1794 18.1794 21 14.7 21H6.3C2.82061 21 0 18.1794 0 14.7V6.3ZM6.3 2.1C3.9804 2.1 2.1 3.9804 2.1 6.3V14.7C2.1 17.0196 3.9804 18.9 6.3 18.9H14.7C17.0196 18.9 18.9 17.0196 18.9 14.7V6.3C18.9 3.9804 17.0196 2.1 14.7 2.1H6.3ZM8.4 10.5C8.4 11.6598 9.3402 12.6 10.5 12.6C11.6598 12.6 12.6 11.6598 12.6 10.5C12.6 9.3402 11.6598 8.4 10.5 8.4C9.3402 8.4 8.4 9.3402 8.4 10.5ZM10.5 6.3C8.1804 6.3 6.3 8.1804 6.3 10.5C6.3 12.8196 8.1804 14.7 10.5 14.7C12.8196 14.7 14.7 12.8196 14.7 10.5C14.7 8.1804 12.8196 6.3 10.5 6.3ZM15.225 4.2C14.3552 4.2 13.65 4.90515 13.65 5.775C13.65 6.64485 14.3552 7.35 15.225 7.35C16.0948 7.35 16.8 6.64485 16.8 5.775C16.8 4.90515 16.0948 4.2 15.225 4.2Z" fill="black" fill-opacity="0.6"/>
</svg>
