<svg width="15" height="17" viewBox="0 0 15 17" fill="none" xmlns="http://www.w3.org/2000/svg">
<path d="M12.4219 11.6172C11.8374 11.6172 11.298 11.8223 10.8756 12.1647L6.62637 9.09062C6.69752 8.70009 6.69752 8.29991 6.62637 7.90938L10.8756 4.83525C11.298 5.17773 11.8374 5.38281 12.4219 5.38281C13.7795 5.38281 14.8828 4.27949 14.8828 2.92188C14.8828 1.56426 13.7795 0.460938 12.4219 0.460938C11.0643 0.460938 9.96094 1.56426 9.96094 2.92188C9.96094 3.15977 9.99375 3.3874 10.0573 3.60478L6.02139 6.52715C5.42256 5.7335 4.471 5.21875 3.39844 5.21875C1.58555 5.21875 0.117188 6.68711 0.117188 8.5C0.117188 10.3129 1.58555 11.7812 3.39844 11.7812C4.471 11.7812 5.42256 11.2665 6.02139 10.4729L10.0573 13.3952C9.99375 13.6126 9.96094 13.8423 9.96094 14.0781C9.96094 15.4357 11.0643 16.5391 12.4219 16.5391C13.7795 16.5391 14.8828 15.4357 14.8828 14.0781C14.8828 12.7205 13.7795 11.6172 12.4219 11.6172ZM12.4219 1.85547C13.0104 1.85547 13.4883 2.3333 13.4883 2.92188C13.4883 3.51045 13.0104 3.98828 12.4219 3.98828C11.8333 3.98828 11.3555 3.51045 11.3555 2.92188C11.3555 2.3333 11.8333 1.85547 12.4219 1.85547ZM3.39844 10.3047C2.40381 10.3047 1.59375 9.49463 1.59375 8.5C1.59375 7.50537 2.40381 6.69531 3.39844 6.69531C4.39307 6.69531 5.20312 7.50537 5.20312 8.5C5.20312 9.49463 4.39307 10.3047 3.39844 10.3047ZM12.4219 15.1445C11.8333 15.1445 11.3555 14.6667 11.3555 14.0781C11.3555 13.4896 11.8333 13.0117 12.4219 13.0117C13.0104 13.0117 13.4883 13.4896 13.4883 14.0781C13.4883 14.6667 13.0104 15.1445 12.4219 15.1445Z" fill="black" fill-opacity="0.6"/>
</svg>
