<svg width="14" height="9" viewBox="0 0 14 9" fill="none" xmlns="http://www.w3.org/2000/svg">
<path fill-rule="evenodd" clip-rule="evenodd" d="M-0.000893593 4.50063C-0.000893593 4.36802 0.0517845 4.24085 0.145553 4.14708C0.239321 4.05331 0.366498 4.00063 0.499106 4.00063H12.2921L9.14511 0.854632C9.09862 0.808144 9.06174 0.752955 9.03658 0.692215C9.01142 0.631476 8.99847 0.566375 8.99847 0.500632C8.99847 0.434888 9.01142 0.369788 9.03658 0.309048C9.06174 0.248309 9.09862 0.193119 9.14511 0.146631C9.19159 0.100144 9.24678 0.0632674 9.30752 0.0381083C9.36826 0.0129493 9.43336 0 9.49911 0C9.56485 0 9.62995 0.0129493 9.69069 0.0381083C9.75143 0.0632674 9.80662 0.100144 9.85311 0.146631L13.8531 4.14663C13.8997 4.19308 13.9366 4.24825 13.9618 4.309C13.987 4.36974 14 4.43486 14 4.50063C14 4.5664 13.987 4.63152 13.9618 4.69226C13.9366 4.75301 13.8997 4.80819 13.8531 4.85463L9.85311 8.85463C9.80662 8.90112 9.75143 8.938 9.69069 8.96315C9.62995 8.98831 9.56485 9.00126 9.49911 9.00126C9.43336 9.00126 9.36826 8.98831 9.30752 8.96315C9.24678 8.938 9.19159 8.90112 9.14511 8.85463C9.09862 8.80814 9.06174 8.75295 9.03658 8.69221C9.01142 8.63148 8.99847 8.56637 8.99847 8.50063C8.99847 8.43489 9.01142 8.36979 9.03658 8.30905C9.06174 8.24831 9.09862 8.19312 9.14511 8.14663L12.2921 5.00063H0.499106C0.366498 5.00063 0.239321 4.94795 0.145553 4.85419C0.0517845 4.76042 -0.000893593 4.63324 -0.000893593 4.50063Z" fill="black" fill-opacity="0.6"/>
</svg>
