<svg width="19" height="18" viewBox="0 0 19 18" fill="none" xmlns="http://www.w3.org/2000/svg">
<path fill-rule="evenodd" clip-rule="evenodd" d="M5.5 3.5H3.66667V2.625H1.83333V5.25H16.5V2.625H14.6667V3.5H12.8333V2.625H5.5V3.5ZM16.5 7H1.83333V15.75H16.5V7ZM12.8333 0.875H5.5V0H3.66667V0.875H1.83333C0.820811 0.875 0 1.6585 0 2.625V15.75C0 16.7165 0.820811 17.5 1.83333 17.5H16.5C17.5126 17.5 18.3333 16.7165 18.3333 15.75V2.625C18.3333 1.6585 17.5126 0.875 16.5 0.875H14.6667V0H12.8333V0.875ZM4.58333 10.5V8.75H6.41667V10.5H4.58333ZM8.25 10.5H10.0833V8.75H8.25V10.5ZM11.9167 10.5V8.75H13.75V10.5H11.9167ZM4.58333 12.25V14H6.41667V12.25H4.58333ZM10.0833 14H8.25V12.25H10.0833V14Z" fill="#878787"/>
</svg>
