<svg width="11" height="21" viewBox="0 0 11 21" fill="none" xmlns="http://www.w3.org/2000/svg">
<path fill-rule="evenodd" clip-rule="evenodd" d="M2.09524 4.2C2.09524 1.8804 3.97138 0 6.28571 0H9.42856C10.0071 0 10.4762 0.470101 10.4762 1.05V4.2C10.4762 4.7799 10.0071 5.25 9.42856 5.25H7.33333V6.3H9.95237C10.2603 6.3 10.5527 6.4358 10.7517 6.67131C10.9508 6.90681 11.0364 7.21817 10.9857 7.52262L10.4619 10.6726C10.3777 11.1789 9.94068 11.55 9.42856 11.55H7.33333V19.95C7.33333 20.5299 6.86429 21 6.28571 21H3.14285C2.56427 21 2.09524 20.5299 2.09524 19.95V11.55H1.04762C0.469035 11.55 0 11.0799 0 10.5V7.35C0 6.7701 0.469035 6.3 1.04762 6.3H2.09524V4.2ZM2.09524 8.4V9.45H3.14285C3.72144 9.45 4.19047 9.9201 4.19047 10.5V18.9H5.23809V10.5C5.23809 9.9201 5.70713 9.45 6.28571 9.45H8.5411L8.7157 8.4H6.28571C5.70713 8.4 5.23809 7.9299 5.23809 7.35V4.2C5.23809 3.6201 5.70713 3.15 6.28571 3.15H8.38095V2.1H6.28571C5.12854 2.1 4.19047 3.0402 4.19047 4.2V7.35C4.19047 7.9299 3.72144 8.4 3.14285 8.4H2.09524Z" fill="black" fill-opacity="0.6"/>
</svg>
